<?xml version="1.0" encoding="utf-8"?>
<!-- Generator: Adobe Illustrator 16.0.0, SVG Export Plug-In . SVG Version: 6.00 Build 0)  -->
<!DOCTYPE svg PUBLIC "-//W3C//DTD SVG 1.1//EN" "http://www.w3.org/Graphics/SVG/1.1/DTD/svg11.dtd">
<svg version="1.1" id="Layer_1" xmlns="http://www.w3.org/2000/svg" xmlns:xlink="http://www.w3.org/1999/xlink" x="0px" y="0px"
	 width="100px" height="100px" viewBox="0 0 100 100" enable-background="new 0 0 100 100" xml:space="preserve">
<g>
	<g>
		<path fill="none" stroke="#151515" stroke-width="2" stroke-miterlimit="10" d="M49.739,97.557
			C23.598,97.557,2.33,76.29,2.33,50.149S23.598,2.74,49.739,2.74s47.409,21.268,47.409,47.409S75.88,97.557,49.739,97.557z"/>
		<circle fill="#151515" cx="49.739" cy="50.149" r="40.681"/>
	</g>
	<path fill="#EEEBE3" d="M43.181,76.917h10.442V50.769h7.285l0.777-8.755h-8.063c0,0,0-3.269,0-4.986c0-2.064,0.415-2.88,2.411-2.88
		c1.605,0,5.651,0,5.651,0v-9.086c0,0-5.959,0-7.23,0c-7.771,0-11.274,3.422-11.274,9.973c0,5.706,0,6.98,0,6.98H37.75v8.865h5.432
		V76.917z"/>
</g>
</svg>
