<?xml version="1.0" encoding="utf-8"?>
<!-- Generator: Adobe Illustrator 16.0.0, SVG Export Plug-In . SVG Version: 6.00 Build 0)  -->
<!DOCTYPE svg PUBLIC "-//W3C//DTD SVG 1.1//EN" "http://www.w3.org/Graphics/SVG/1.1/DTD/svg11.dtd">
<svg version="1.1" id="Layer_1" xmlns="http://www.w3.org/2000/svg" xmlns:xlink="http://www.w3.org/1999/xlink" x="0px" y="0px"
	 width="100px" height="100px" viewBox="0 0 100 100" enable-background="new 0 0 100 100" xml:space="preserve">
<g>
	<g>
		<path fill="none" stroke="#151515" stroke-width="2" stroke-miterlimit="10" d="M50.088,97.557
			c-26.142,0-47.409-21.267-47.409-47.408S23.946,2.74,50.088,2.74c26.141,0,47.408,21.268,47.408,47.409
			S76.229,97.557,50.088,97.557z"/>
		<circle fill="#151515" cx="50.087" cy="50.149" r="40.681"/>
	</g>
	<g>
		<path fill="#EEEBE3" d="M58.535,47.45H41.204l0.021,4.964H52.91c-1.382,6.044-5.647,9.75-11.372,9.75
			c-7.509,0-13.597-6.088-13.597-13.596c0-7.509,6.088-13.596,13.597-13.596c3.57,0,6.817,1.378,9.243,3.629l3.835-3.306
			c-3.364-3.315-7.981-5.363-13.078-5.363c-10.293,0-18.637,8.344-18.637,18.636s8.344,18.636,18.637,18.636
			c9.884,0,17.026-7.538,17.026-17.831L58.535,47.45z"/>
		<g>
			<rect x="64.571" y="47.655" fill="#EEEBE3" width="18.873" height="4.563"/>
			<rect x="71.726" y="40.501" fill="#EEEBE3" width="4.564" height="18.873"/>
		</g>
	</g>
</g>
</svg>
