<?xml version="1.0" encoding="utf-8"?>
<!-- Generator: Adobe Illustrator 16.0.0, SVG Export Plug-In . SVG Version: 6.00 Build 0)  -->
<!DOCTYPE svg PUBLIC "-//W3C//DTD SVG 1.1//EN" "http://www.w3.org/Graphics/SVG/1.1/DTD/svg11.dtd">
<svg version="1.1" id="Layer_1" xmlns="http://www.w3.org/2000/svg" xmlns:xlink="http://www.w3.org/1999/xlink" x="0px" y="0px"
	 width="100px" height="100px" viewBox="0 0 100 100" enable-background="new 0 0 100 100" xml:space="preserve">
<g>
	<g>
		<path fill="none" stroke="#151515" stroke-width="2" stroke-miterlimit="10" d="M49.805,97.557
			c-26.142,0-47.409-21.267-47.409-47.408S23.663,2.74,49.805,2.74c26.141,0,47.408,21.268,47.408,47.409
			S75.945,97.557,49.805,97.557z"/>
		<circle fill="#151515" cx="49.804" cy="50.149" r="40.681"/>
	</g>
	<g>
		<path fill="#EEEBE3" d="M49.847,31.719c6.279,0,7.023,0.024,9.504,0.137c2.293,0.105,3.538,0.488,4.367,0.81
			c1.098,0.427,1.881,0.937,2.704,1.759c0.823,0.823,1.333,1.606,1.76,2.704c0.321,0.829,0.705,2.075,0.81,4.368
			c0.113,2.48,0.137,3.224,0.137,9.504s-0.023,7.024-0.137,9.504c-0.104,2.293-0.488,3.538-0.81,4.367
			c-0.427,1.099-0.937,1.882-1.76,2.704c-0.823,0.823-1.606,1.333-2.704,1.76c-0.829,0.322-2.074,0.705-4.367,0.811
			c-2.48,0.112-3.224,0.137-9.504,0.137c-6.281,0-7.024-0.024-9.504-0.137c-2.293-0.105-3.539-0.488-4.367-0.811
			c-1.098-0.427-1.881-0.937-2.704-1.76c-0.823-0.822-1.333-1.605-1.759-2.704c-0.322-0.829-0.706-2.074-0.81-4.367
			c-0.113-2.479-0.137-3.224-0.137-9.504s0.024-7.024,0.137-9.504c0.104-2.293,0.488-3.539,0.81-4.368
			c0.426-1.098,0.936-1.881,1.759-2.704c0.823-0.823,1.606-1.333,2.704-1.759c0.829-0.322,2.074-0.705,4.367-0.81
			C42.823,31.743,43.566,31.719,49.847,31.719 M49.847,27.481c-6.388,0-7.189,0.027-9.697,0.141
			c-2.503,0.115-4.213,0.512-5.709,1.093c-1.546,0.601-2.858,1.405-4.166,2.713s-2.112,2.619-2.713,4.166
			c-0.582,1.496-0.979,3.206-1.093,5.709c-0.115,2.509-0.142,3.31-0.142,9.697s0.027,7.188,0.142,9.697
			c0.114,2.503,0.512,4.213,1.093,5.709c0.601,1.547,1.405,2.858,2.713,4.166s2.619,2.112,4.166,2.713
			c1.496,0.581,3.206,0.979,5.709,1.093c2.508,0.115,3.31,0.142,9.697,0.142s7.188-0.026,9.697-0.142
			c2.503-0.114,4.213-0.512,5.709-1.093c1.547-0.601,2.858-1.405,4.166-2.713s2.111-2.619,2.712-4.166
			c0.582-1.496,0.979-3.206,1.094-5.709c0.114-2.509,0.142-3.31,0.142-9.697s-0.027-7.188-0.142-9.697
			c-0.114-2.503-0.512-4.213-1.094-5.709c-0.601-1.547-1.404-2.858-2.712-4.166s-2.619-2.112-4.166-2.713
			c-1.496-0.581-3.206-0.979-5.709-1.093C57.035,27.508,56.234,27.481,49.847,27.481"/>
		<path fill="#EEEBE3" d="M49.847,38.923c-6.67,0-12.078,5.407-12.078,12.078c0,6.671,5.408,12.077,12.078,12.077
			c6.67,0,12.077-5.406,12.077-12.077C61.924,44.331,56.517,38.923,49.847,38.923 M49.847,58.841c-4.33,0-7.84-3.511-7.84-7.84
			c0-4.33,3.51-7.84,7.84-7.84s7.84,3.51,7.84,7.84C57.687,55.33,54.177,58.841,49.847,58.841"/>
		<path fill="#EEEBE3" d="M65.224,38.446c0,1.559-1.264,2.822-2.822,2.822s-2.822-1.264-2.822-2.822
			c0-1.559,1.264-2.823,2.822-2.823S65.224,36.887,65.224,38.446"/>
	</g>
</g>
</svg>
