<?xml version="1.0" encoding="utf-8"?>
<!-- Generator: Adobe Illustrator 16.0.0, SVG Export Plug-In . SVG Version: 6.00 Build 0)  -->
<!DOCTYPE svg PUBLIC "-//W3C//DTD SVG 1.1//EN" "http://www.w3.org/Graphics/SVG/1.1/DTD/svg11.dtd">
<svg version="1.1" id="Layer_1" xmlns="http://www.w3.org/2000/svg" xmlns:xlink="http://www.w3.org/1999/xlink" x="0px" y="0px"
	 width="100px" height="100px" viewBox="0 0 100 100" enable-background="new 0 0 100 100" xml:space="preserve">
<g>
	<g>
		<path fill="none" stroke="#151515" stroke-width="2" stroke-miterlimit="10" d="M49.462,97.557
			c-26.141,0-47.409-21.267-47.409-47.408S23.321,2.74,49.462,2.74c26.142,0,47.409,21.268,47.409,47.409
			S75.604,97.557,49.462,97.557z"/>
		<circle fill="#151515" cx="49.462" cy="50.149" r="40.681"/>
	</g>
	<path fill="#EEEBE3" d="M29.645,66.508c4.15,2.662,9.08,4.215,14.375,4.215c17.412,0,27.248-14.707,26.656-27.897
		c1.831-1.32,3.422-2.972,4.679-4.854c-1.683,0.746-3.49,1.25-5.386,1.476c1.936-1.158,3.422-2.996,4.122-5.188
		c-1.812,1.075-3.819,1.856-5.954,2.277c-1.711-1.823-4.147-2.961-6.846-2.961c-6.053,0-10.501,5.648-9.135,11.515
		c-7.794-0.391-14.704-4.125-19.329-9.799c-2.457,4.216-1.274,9.731,2.902,12.521c-1.538-0.048-2.986-0.472-4.25-1.174
		c-0.101,4.346,3.012,8.409,7.522,9.314c-1.321,0.36-2.766,0.44-4.234,0.16c1.191,3.728,4.655,6.437,8.759,6.513
		C39.586,65.717,34.62,67.096,29.645,66.508z"/>
</g>
</svg>
